<svg xmlns="http://www.w3.org/2000/svg" xmlns:xlink="http://www.w3.org/1999/xlink" width="512" zoomAndPan="magnify" viewBox="0 0 384 383.999986" height="512" preserveAspectRatio="xMidYMid meet" version="1.0"><defs><clipPath id="8e6e6e5afd"><path d="M 172 23.667969 L 181 23.667969 L 181 30 L 172 30 Z M 172 23.667969 " clip-rule="nonzero"/></clipPath><clipPath id="caebf21f48"><path d="M 32 26 L 359.394531 26 L 359.394531 360.417969 L 32 360.417969 Z M 32 26 " clip-rule="nonzero"/></clipPath><clipPath id="fef6f4c432"><path d="M 179.078125 79.484375 L 290.1875 79.484375 L 290.1875 298.09375 L 179.078125 298.09375 Z M 179.078125 79.484375 " clip-rule="nonzero"/></clipPath><clipPath id="21d4fadf69"><path d="M 179.078125 79.484375 L 244 79.484375 L 244 298.09375 L 179.078125 298.09375 Z M 179.078125 79.484375 " clip-rule="nonzero"/></clipPath><clipPath id="c0f3bfd124"><path d="M 93 86 L 218 86 L 218 302 L 93 302 Z M 93 86 " clip-rule="nonzero"/></clipPath><clipPath id="e0b090edd9"><path d="M 204.71875 304.511719 L 93.808594 297.929688 L 106.757812 79.707031 L 217.671875 86.289062 Z M 204.71875 304.511719 " clip-rule="nonzero"/></clipPath><clipPath id="3195bfaa99"><path d="M 204.71875 304.511719 L 93.808594 297.929688 L 106.757812 79.707031 L 217.671875 86.289062 Z M 204.71875 304.511719 " clip-rule="nonzero"/></clipPath><clipPath id="bd0afaf55e"><path d="M 140 86 L 218 86 L 218 302 L 140 302 Z M 140 86 " clip-rule="nonzero"/></clipPath><clipPath id="fff9b6ff13"><path d="M 204.71875 304.511719 L 93.808594 297.929688 L 106.757812 79.707031 L 217.671875 86.289062 Z M 204.71875 304.511719 " clip-rule="nonzero"/></clipPath><clipPath id="462d984448"><path d="M 204.71875 304.511719 L 93.808594 297.929688 L 106.757812 79.707031 L 217.671875 86.289062 Z M 204.71875 304.511719 " clip-rule="nonzero"/></clipPath></defs><path fill="#320047" d="M 154.917969 28.285156 C 154.875 27.863281 154.800781 27.414062 154.679688 26.917969 C 154.023438 27.65625 154.25 28.042969 154.917969 28.285156 Z M 154.917969 28.285156 " fill-opacity="1" fill-rule="nonzero"/><path fill="#320047" d="M 212.664062 26.757812 C 214.074219 26.769531 215.484375 26.78125 215.484375 26.78125 C 215.75 26.835938 215.921875 26.859375 216.027344 26.871094 C 216.070312 26.867188 216.109375 26.859375 216.152344 26.855469 C 216.160156 26.667969 210.734375 25.09375 210.578125 26.75 C 210.628906 26.75 210.675781 26.75 210.730469 26.746094 C 211.253906 26.75 211.960938 26.753906 212.664062 26.757812 Z M 212.664062 26.757812 " fill-opacity="1" fill-rule="nonzero"/><path fill="#320047" d="M 185.578125 27.878906 C 184.933594 27.613281 184.222656 27.402344 183.476562 27.273438 C 184.070312 27.472656 184.789062 27.675781 185.578125 27.878906 Z M 185.578125 27.878906 " fill-opacity="1" fill-rule="nonzero"/><path fill="#320047" d="M 201.21875 29.625 C 200.121094 29.3125 198.992188 29.074219 197.828125 28.898438 C 196.832031 28.761719 195.8125 28.679688 194.773438 28.667969 C 193.738281 28.699219 192.679688 28.804688 191.609375 28.992188 C 191.609375 28.992188 191.625 29.019531 191.652344 29.066406 C 193.136719 29.277344 194.679688 29.449219 196.246094 29.542969 C 197.910156 29.695312 199.582031 29.703125 201.21875 29.625 Z M 201.21875 29.625 " fill-opacity="1" fill-rule="nonzero"/><g clip-path="url(#8e6e6e5afd)"><path fill="#320047" d="M 178.566406 28.195312 C 179.824219 27.914062 180.664062 27.730469 180.664062 27.730469 C 180.664062 27.730469 179.921875 26.710938 179.179688 25.691406 C 178.425781 24.679688 177.671875 23.667969 177.671875 23.667969 C 171.410156 23.761719 172.179688 25.46875 172.835938 27.230469 C 173.15625 28.105469 173.4375 29 172.839844 29.722656 C 173.222656 29.617188 173.613281 29.515625 174.003906 29.414062 C 175.664062 28.96875 177.324219 28.527344 178.566406 28.195312 Z M 178.566406 28.195312 " fill-opacity="1" fill-rule="nonzero"/></g><path fill="#320047" d="M 172.828125 29.738281 C 172.832031 29.734375 172.835938 29.726562 172.839844 29.722656 C 171.589844 30.058594 170.402344 30.402344 169.472656 30.722656 C 168.25 31.117188 167.433594 31.378906 167.433594 31.378906 C 169.074219 31.210938 170.261719 30.972656 171.121094 30.679688 C 171.984375 30.410156 172.519531 30.109375 172.828125 29.738281 Z M 172.828125 29.738281 " fill-opacity="1" fill-rule="nonzero"/><path fill="#320047" d="M 278.007812 342.246094 C 277.636719 342.765625 277.097656 343.355469 276.488281 343.960938 C 277.128906 343.765625 277.753906 343.523438 278.34375 343.171875 Z M 278.007812 342.246094 " fill-opacity="1" fill-rule="nonzero"/><path fill="#320047" d="M 277.144531 339.921875 L 278.007812 342.25 C 278.757812 341.109375 278.792969 340.238281 277.144531 339.921875 Z M 277.144531 339.921875 " fill-opacity="1" fill-rule="nonzero"/><path fill="#320047" d="M 255.894531 350.515625 C 254.191406 352.261719 252.386719 353.851562 252.386719 353.851562 C 253.945312 353.546875 256.558594 352.765625 258.328125 351.609375 C 260.105469 350.460938 261.015625 348.957031 259.265625 347.101562 C 259.265625 347.101562 257.582031 348.808594 255.894531 350.515625 Z M 255.894531 350.515625 " fill-opacity="1" fill-rule="nonzero"/><path fill="#320047" d="M 308.21875 292.011719 L 306.679688 290.957031 C 306.777344 291.621094 307.144531 292.089844 308.21875 292.011719 Z M 308.21875 292.011719 " fill-opacity="1" fill-rule="nonzero"/><path fill="#320047" d="M 46.515625 127.769531 C 46.386719 127.421875 46.195312 127.0625 45.902344 126.695312 C 45.902344 126.695312 46.140625 127.117188 46.515625 127.769531 Z M 46.515625 127.769531 " fill-opacity="1" fill-rule="nonzero"/><path fill="#320047" d="M 193.59375 354.695312 L 193.40625 354.429688 C 193.390625 354.539062 193.457031 354.625 193.59375 354.695312 Z M 193.59375 354.695312 " fill-opacity="1" fill-rule="nonzero"/><path fill="#320047" d="M 282.109375 58.890625 C 282.546875 58.453125 282.84375 58.15625 282.84375 58.15625 C 282.476562 58.339844 282.253906 58.597656 282.109375 58.890625 Z M 282.109375 58.890625 " fill-opacity="1" fill-rule="nonzero"/><path fill="#320047" d="M 350.476562 232.636719 C 350.371094 232.648438 350.285156 232.648438 350.1875 232.65625 C 350.179688 232.800781 350.175781 232.945312 350.167969 233.09375 C 350.269531 232.941406 350.363281 232.792969 350.476562 232.636719 Z M 350.476562 232.636719 " fill-opacity="1" fill-rule="nonzero"/><path fill="#320047" d="M 348.4375 246.800781 C 349.121094 242.660156 349.859375 237.648438 350.160156 233.328125 C 350.164062 233.25 350.164062 233.175781 350.167969 233.09375 C 348.703125 235.292969 348.050781 237.121094 347.996094 239.15625 C 347.941406 241.324219 348.292969 243.679688 348.4375 246.800781 Z M 348.4375 246.800781 " fill-opacity="1" fill-rule="nonzero"/><path fill="#320047" d="M 335.988281 280.621094 C 336.316406 280.890625 336.6875 281.15625 337.125 281.425781 C 337.066406 280.433594 336.628906 280.320312 335.988281 280.621094 Z M 335.988281 280.621094 " fill-opacity="1" fill-rule="nonzero"/><path fill="#320047" d="M 326.621094 279.121094 C 326.621094 279.121094 327.769531 277.503906 328.859375 275.84375 C 329.914062 274.15625 330.964844 272.46875 330.964844 272.46875 C 332.347656 274.394531 331.496094 276.710938 330.464844 278.757812 C 329.457031 280.820312 328.476562 282.71875 329.867188 284.179688 C 331.554688 284.691406 334.40625 281.363281 335.988281 280.621094 C 333.21875 278.371094 334.035156 276.117188 334.570312 274.289062 C 335.164062 272.242188 335.335938 270.804688 329.703125 270.574219 C 329.449219 271.058594 329.203125 271.554688 328.964844 272.089844 C 328.136719 273.957031 327.402344 276.1875 326.621094 279.121094 Z M 326.621094 279.121094 " fill-opacity="1" fill-rule="nonzero"/><path fill="#320047" d="M 335.457031 254.90625 C 335.171875 257.914062 334.632812 260.234375 333.976562 262.179688 C 333.460938 263.511719 332.894531 264.660156 332.316406 265.757812 C 332.941406 265.410156 333.601562 265.3125 334.28125 265.214844 C 336.039062 264.957031 338.042969 264.667969 339.449219 259.332031 C 339.449219 259.332031 338.453125 258.210938 337.460938 257.09375 C 336.460938 256 335.457031 254.90625 335.457031 254.90625 Z M 335.457031 254.90625 " fill-opacity="1" fill-rule="nonzero"/><path fill="#320047" d="M 329.550781 270.566406 C 329.601562 270.566406 329.648438 270.570312 329.703125 270.574219 C 330.324219 269.371094 330.964844 268.289062 331.546875 267.183594 C 331.800781 266.710938 332.058594 266.238281 332.3125 265.753906 C 332.121094 265.863281 331.929688 265.988281 331.746094 266.152344 C 330.933594 266.839844 330.304688 268.148438 329.550781 270.566406 Z M 329.550781 270.566406 " fill-opacity="1" fill-rule="nonzero"/><path fill="#320047" d="M 307.535156 308.519531 C 308.242188 307.761719 308.914062 306.941406 309.542969 306.050781 C 309.542969 306.050781 309.507812 306.042969 309.460938 306.027344 C 308.261719 306.929688 307.046875 307.902344 305.875 308.941406 C 304.589844 310.003906 303.402344 311.183594 302.300781 312.394531 C 303.296875 311.839844 304.265625 311.210938 305.210938 310.511719 C 306.011719 309.90625 306.789062 309.242188 307.535156 308.519531 Z M 307.535156 308.519531 " fill-opacity="1" fill-rule="nonzero"/><path fill="#320047" d="M 314.59375 302.574219 C 315.238281 302.308594 315.886719 301.957031 316.507812 301.519531 C 315.949219 301.800781 315.296875 302.160156 314.59375 302.574219 Z M 314.59375 302.574219 " fill-opacity="1" fill-rule="nonzero"/><path fill="#320047" d="M 311.507812 303.042969 C 310.15625 302.757812 309.539062 301.703125 310.28125 299.496094 C 310.28125 299.496094 311.808594 299.457031 313.332031 299.417969 C 314.875 299.351562 316.417969 299.289062 316.417969 299.289062 C 316.417969 299.289062 316.402344 298.53125 316.378906 297.394531 C 316.367188 296.277344 316.285156 294.757812 316.167969 293.242188 C 315.957031 290.222656 315.675781 287.308594 315.675781 287.308594 C 315.738281 289.445312 314.980469 291.214844 313.941406 292.71875 C 312.917969 294.238281 311.457031 295.386719 310.304688 296.507812 C 307.992188 298.753906 306.414062 300.542969 309.53125 303.847656 C 309.53125 303.847656 308.328125 304.101562 307.125 304.355469 C 305.9375 304.59375 304.746094 304.832031 304.746094 304.832031 C 304.746094 304.832031 305.941406 305.140625 307.136719 305.453125 C 308.160156 305.707031 309.175781 305.957031 309.460938 306.027344 C 311.300781 304.648438 313.082031 303.464844 314.59375 302.574219 C 313.46875 303.039062 312.367188 303.226562 311.507812 303.042969 Z M 311.507812 303.042969 " fill-opacity="1" fill-rule="nonzero"/><path fill="#320047" d="M 296.234375 322.511719 C 295.230469 323.5 294.226562 324.488281 294.226562 324.488281 C 294 324.636719 293.859375 324.738281 293.777344 324.808594 C 293.753906 324.839844 293.726562 324.875 293.699219 324.90625 C 293.828125 325.039062 298.773438 322.320312 297.714844 321.039062 C 297.679688 321.078125 297.648438 321.109375 297.613281 321.148438 C 297.238281 321.519531 296.734375 322.015625 296.234375 322.511719 Z M 296.234375 322.511719 " fill-opacity="1" fill-rule="nonzero"/><path fill="#320047" d="M 324.949219 287.277344 C 323.90625 288.558594 323.234375 289.566406 322.832031 290.378906 C 322.414062 291.179688 322.25 291.773438 322.292969 292.25 C 322.292969 292.257812 322.300781 292.261719 322.300781 292.269531 C 322.945312 291.148438 323.539062 290.070312 323.96875 289.183594 C 324.554688 288.042969 324.949219 287.277344 324.949219 287.277344 Z M 324.949219 287.277344 " fill-opacity="1" fill-rule="nonzero"/><path fill="#320047" d="M 324.066406 294.03125 C 323.21875 293.636719 322.386719 293.203125 322.300781 292.269531 C 322.101562 292.613281 321.898438 292.964844 321.695312 293.3125 C 320.835938 294.800781 319.976562 296.285156 319.332031 297.398438 C 318.636719 298.484375 318.175781 299.210938 318.175781 299.210938 C 318.175781 299.210938 319.421875 299.40625 320.667969 299.605469 C 321.917969 299.785156 323.167969 299.96875 323.167969 299.96875 C 327.523438 295.476562 325.773438 294.8125 324.066406 294.03125 Z M 324.066406 294.03125 " fill-opacity="1" fill-rule="nonzero"/><path fill="#320047" d="M 26.8125 145.601562 C 26.703125 144.976562 26.667969 144.179688 26.671875 143.316406 C 26.359375 143.910156 26.085938 144.519531 25.917969 145.1875 Z M 26.8125 145.601562 " fill-opacity="1" fill-rule="nonzero"/><path fill="#320047" d="M 29.066406 146.636719 L 26.8125 145.601562 C 27.085938 146.9375 27.675781 147.578125 29.066406 146.636719 Z M 29.066406 146.636719 " fill-opacity="1" fill-rule="nonzero"/><path fill="#320047" d="M 33.917969 136.464844 C 36.078125 134.808594 36.925781 133.355469 33.617188 130.765625 C 33.617188 130.765625 32.609375 132.535156 31.597656 134.304688 C 31.097656 135.195312 30.59375 136.085938 30.21875 136.75 C 29.84375 137.417969 29.605469 137.871094 29.605469 137.867188 C 26.511719 136.277344 24.972656 135.472656 27.640625 131.015625 C 25.832031 131.507812 25.554688 136.539062 25.1875 139.203125 L 26.289062 137.609375 C 26.761719 139.0625 26.652344 141.355469 26.671875 143.316406 C 28.367188 140.0625 31.710938 138.085938 33.917969 136.464844 Z M 33.917969 136.464844 " fill-opacity="1" fill-rule="nonzero"/><path fill="#320047" d="M 36.628906 128.925781 C 36.628906 128.925781 36.613281 126.527344 36.597656 124.128906 C 36.566406 121.691406 36.71875 119.289062 36.71875 119.289062 C 35.832031 120.605469 34.539062 123.003906 34.105469 125.074219 C 33.660156 127.144531 34.078125 128.847656 36.628906 128.925781 Z M 36.628906 128.925781 " fill-opacity="1" fill-rule="nonzero"/><path fill="#320047" d="M 45.84375 121.921875 C 46.726562 120.578125 47.65625 119.375 47.625 117.808594 C 45.414062 119.207031 45.464844 118.328125 46.109375 116.796875 C 46.765625 115.28125 47.992188 113.121094 47.988281 111.941406 C 40.28125 117.929688 47.75 116.851562 45.84375 121.921875 Z M 45.84375 121.921875 " fill-opacity="1" fill-rule="nonzero"/><path fill="#320047" d="M 45.84375 121.921875 C 45.441406 122.550781 45.054688 123.21875 44.835938 123.980469 C 45.339844 123.183594 45.621094 122.53125 45.84375 121.921875 Z M 45.84375 121.921875 " fill-opacity="1" fill-rule="nonzero"/><path fill="#320047" d="M 77.695312 77.148438 L 78.011719 77.203125 C 77.949219 77.113281 77.839844 77.101562 77.695312 77.148438 Z M 77.695312 77.148438 " fill-opacity="1" fill-rule="nonzero"/><g clip-path="url(#caebf21f48)"><path fill="#320047" d="M 358.207031 183.148438 C 357.496094 181.226562 356.6875 178.957031 356.140625 176.777344 C 355.605469 174.59375 355.496094 172.453125 356.453125 170.675781 L 353.058594 171.316406 C 353.039062 171.078125 353.015625 170.84375 352.996094 170.609375 C 352.703125 166.558594 352.515625 163.992188 352.539062 162.257812 C 352.507812 160.433594 352.617188 159.535156 352.78125 158.722656 C 352.941406 157.910156 353.128906 157.1875 353.160156 155.710938 C 353.175781 154.972656 353.148438 154.046875 353.0625 152.824219 C 352.925781 151.613281 352.714844 150.113281 352.394531 148.203125 C 352.394531 148.203125 351.109375 147.460938 349.828125 146.71875 C 349.46875 146.515625 349.117188 146.316406 348.785156 146.132812 C 348.566406 145.300781 348.347656 144.472656 348.113281 143.644531 C 348.136719 143.625 348.152344 143.605469 348.175781 143.582031 C 348.03125 143.171875 347.875 142.757812 347.730469 142.34375 C 345.46875 134.644531 342.578125 127.210938 339.113281 120.109375 C 338.566406 118.308594 337.75 116.484375 336.445312 114.769531 C 336.445312 114.769531 336.476562 114.878906 336.515625 115.042969 C 334.777344 111.816406 332.925781 108.660156 330.953125 105.589844 C 331.160156 105.417969 331.359375 105.207031 331.539062 104.914062 C 330.253906 103.011719 328.746094 101.355469 327.101562 99.898438 C 315.230469 83.230469 299.867188 69.222656 282.082031 58.933594 C 282.089844 58.917969 282.101562 58.90625 282.109375 58.890625 C 282.097656 58.902344 282.085938 58.917969 282.074219 58.929688 C 280.65625 58.109375 279.21875 57.316406 277.769531 56.542969 C 278.300781 55.949219 278.886719 55.34375 279.480469 54.730469 C 282.53125 51.589844 285.675781 48.222656 279.507812 45.605469 C 281.871094 48.492188 280.757812 51.03125 278.671875 52.515625 C 276.5625 54.023438 273.578125 54.402344 271.644531 53.007812 C 271.671875 53.132812 271.675781 53.292969 271.667969 53.476562 C 270.820312 53.074219 269.96875 52.675781 269.109375 52.289062 C 271.152344 51.601562 271.523438 50.304688 270.785156 48.980469 C 269.996094 47.558594 267.960938 46.089844 265.566406 45.621094 C 266.542969 46.078125 267.347656 46.621094 267.957031 47.226562 C 268.558594 47.851562 268.980469 48.515625 269.226562 49.160156 C 269.664062 50.324219 269.503906 51.410156 268.855469 52.179688 C 267.566406 51.601562 266.265625 51.050781 264.957031 50.511719 C 264.675781 50.304688 264.398438 50.105469 264.117188 49.902344 C 264.53125 49.734375 264.992188 49.429688 265.519531 48.929688 C 266.949219 46.535156 264.515625 43.871094 261.035156 41.320312 C 259.285156 40.089844 257.304688 38.828125 255.460938 37.601562 C 253.597656 36.449219 251.886719 35.285156 250.726562 34.082031 C 248.234375 33.75 246.871094 34.183594 245.898438 34.875 C 244.921875 35.597656 244.304688 36.703125 243.242188 38.070312 C 242.988281 36.445312 241.710938 35.054688 240.371094 33.796875 C 239.03125 32.527344 237.660156 31.257812 237.292969 29.617188 C 234.535156 30.191406 232.234375 30.210938 230.128906 29.867188 C 228.027344 29.511719 226.121094 28.773438 224.183594 28.199219 C 222.25 27.59375 220.300781 26.964844 218.167969 26.804688 C 217.515625 26.773438 216.839844 26.800781 216.152344 26.855469 C 216.152344 26.871094 216.113281 26.878906 216.03125 26.871094 C 214.507812 27.007812 212.898438 27.371094 211.164062 28.121094 C 210.710938 27.519531 210.546875 27.078125 210.578125 26.753906 C 210.140625 26.765625 209.847656 26.777344 209.847656 26.777344 L 210.445312 27.449219 C 208.539062 28.570312 206.265625 29.183594 203.832031 29.433594 C 202.980469 29.523438 202.105469 29.582031 201.21875 29.625 C 201.996094 29.84375 202.757812 30.089844 203.5 30.398438 C 204.011719 30.617188 204.5 30.867188 204.996094 31.101562 C 203.601562 31.226562 201.851562 31.457031 200.09375 31.660156 C 197.601562 31.925781 195.136719 32.308594 193.726562 32.542969 C 193.496094 32.148438 193.195312 31.632812 192.886719 31.117188 C 192.34375 30.214844 191.804688 29.316406 191.652344 29.066406 C 189.375 28.742188 187.28125 28.320312 185.578125 27.878906 C 186.703125 28.347656 187.613281 28.992188 188.089844 29.730469 C 188.441406 30.265625 188.546875 30.808594 188.371094 31.335938 C 187.988281 31.355469 187.605469 31.382812 187.226562 31.402344 C 186.414062 31.464844 185.601562 31.484375 184.792969 31.527344 C 184.609375 31.355469 184.425781 31.179688 184.238281 31.003906 C 183.101562 29.957031 181.96875 28.914062 181.96875 28.914062 C 181.96875 28.914062 181.441406 29.460938 180.65625 30.28125 C 180.246094 30.699219 179.773438 31.207031 179.277344 31.757812 C 176.503906 31.859375 173.753906 32.039062 171.070312 32.140625 C 167.597656 32.390625 164.242188 32.742188 161.136719 33.28125 C 158.554688 33.8125 156.15625 34.449219 154.007812 35.304688 C 154.941406 34.464844 156.226562 33.929688 157.503906 33.507812 C 159.675781 32.757812 161.710938 32.109375 161.765625 30.09375 C 160.933594 28.539062 156.558594 28.878906 154.917969 28.285156 C 155.285156 31.832031 153.113281 32.847656 151.441406 33.765625 C 149.746094 34.695312 148.65625 35.523438 151.320312 38.761719 C 151.140625 39.316406 151.160156 39.773438 151.566406 40.042969 C 150.527344 40.355469 149.53125 40.621094 148.550781 40.925781 C 148.035156 41.078125 147.519531 41.234375 147 41.394531 C 147.210938 41.453125 147.4375 41.5 147.683594 41.515625 C 148.664062 41.59375 149.921875 41.183594 151.878906 40.191406 C 152.546875 40.402344 153.773438 40.347656 155.902344 39.859375 C 153.386719 42.339844 150.117188 43.1875 146.546875 43.238281 C 145.195312 43.324219 143.792969 43.289062 142.398438 43.226562 C 142.699219 43.066406 143 42.894531 143.292969 42.75 C 144.597656 42.175781 145.8125 41.761719 147 41.394531 C 146.308594 41.199219 145.773438 40.796875 145.226562 40.386719 C 143.800781 39.332031 142.179688 38.117188 137.40625 40.898438 C 137.40625 40.898438 137.351562 41.875 137.28125 43.03125 C 136.832031 43.023438 136.367188 43 135.933594 43.015625 C 135.933594 43.015625 136.164062 42.625 136.507812 42.046875 C 136.851562 41.457031 137.324219 40.699219 137.808594 39.957031 C 138.789062 38.449219 139.769531 36.945312 139.769531 36.945312 C 131.117188 39.910156 121.183594 41.917969 111.773438 45.3125 C 102.394531 48.648438 93.566406 53.261719 87.953125 59.871094 L 92.449219 61.1875 C 91.703125 61.816406 90.945312 62.425781 90.179688 63.011719 C 89.425781 63.617188 88.679688 64.226562 87.917969 64.804688 C 86.402344 65.96875 84.855469 67.054688 83.308594 68.09375 C 80.300781 70.273438 77.246094 72.21875 74.46875 74.183594 C 71.742188 76.203125 69.105469 78.03125 67.050781 80.019531 C 64.988281 81.992188 63.328125 83.9375 62.347656 85.929688 C 68.382812 84.101562 67.566406 86.152344 65.238281 88.984375 C 64.683594 89.71875 64.03125 90.503906 63.359375 91.304688 C 63.132812 91.40625 62.898438 91.492188 62.65625 91.566406 L 62.960938 91.773438 C 61.03125 94.042969 59.054688 96.320312 58.8125 97.601562 C 59.910156 96.722656 61.019531 95.75 62.125 94.714844 C 62.824219 94.042969 63.503906 93.332031 64.171875 92.601562 L 65.519531 93.519531 C 62.578125 96.914062 60.789062 99.003906 59.472656 100.285156 C 58.203125 101.597656 57.492188 102.15625 56.796875 102.613281 C 56.109375 103.078125 55.464844 103.453125 54.398438 104.476562 C 53.867188 104.984375 53.226562 105.660156 52.425781 106.585938 C 51.664062 107.535156 50.75 108.746094 49.628906 110.324219 C 49.628906 110.324219 50.011719 111.757812 50.390625 113.1875 C 50.589844 113.894531 50.785156 114.601562 50.929688 115.132812 C 51.09375 115.664062 51.203125 116.019531 51.203125 116.019531 C 51.515625 116.511719 51.878906 113.058594 52.789062 109.714844 C 53.636719 106.347656 55.3125 103.277344 57.523438 104.558594 C 57.355469 105.804688 57.105469 107.0625 56.804688 108.328125 C 56.523438 109.609375 56.226562 110.925781 55.875 112.238281 C 55.527344 113.554688 55.144531 114.882812 54.753906 116.21875 C 54.371094 117.5625 54.046875 118.941406 53.695312 120.3125 C 53.351562 121.683594 53.019531 123.0625 52.71875 124.4375 C 52.4375 125.820312 52.246094 127.222656 52.078125 128.605469 C 51.917969 129.992188 51.808594 131.367188 51.777344 132.71875 C 51.757812 134.078125 51.878906 135.441406 52.0625 136.761719 C 52.0625 136.761719 50.421875 134.324219 48.878906 131.800781 C 47.96875 130.292969 47.082031 128.757812 46.515625 127.769531 C 47.230469 129.730469 45.589844 131.457031 43.546875 133.796875 C 42.320312 135.164062 40.90625 136.722656 39.683594 138.59375 C 38.539062 140.476562 37.597656 142.679688 37.246094 145.238281 C 37.246094 145.238281 38.445312 143.25 39.644531 141.265625 C 40.253906 140.28125 40.828125 139.300781 41.3125 138.582031 C 41.792969 137.863281 42.117188 137.382812 42.117188 137.382812 C 43.476562 139.644531 43.964844 142.25 43.789062 145.058594 C 43.578125 147.859375 42.992188 150.933594 42.269531 154.136719 C 42.085938 154.9375 41.902344 155.746094 41.714844 156.554688 C 41.566406 157.375 41.414062 158.199219 41.265625 159.019531 C 40.976562 160.671875 40.722656 162.332031 40.558594 163.972656 C 40.265625 167.257812 40.503906 170.484375 41.449219 173.34375 C 41.714844 170.289062 42 167.238281 44.460938 166.964844 C 44.675781 167.238281 44.839844 167.558594 44.976562 167.902344 C 44.96875 169.046875 45.042969 169.265625 45.304688 169.121094 C 45.496094 170.34375 45.410156 171.800781 45.144531 173.324219 C 44.746094 175.910156 43.988281 178.699219 43.203125 180.777344 C 42.882812 180.71875 42.582031 180.617188 42.296875 180.5 C 41.96875 178.449219 42.113281 176.433594 43.519531 173.652344 C 43.519531 173.652344 42.292969 173.851562 41.0625 174.054688 C 39.835938 174.269531 38.605469 174.488281 38.605469 174.488281 C 38.636719 174.957031 38.679688 175.421875 38.726562 175.886719 C 38.726562 175.878906 38.722656 175.875 38.722656 175.871094 C 37.78125 173.277344 37.644531 170.003906 37.421875 166.855469 C 37.140625 160.570312 37.417969 154.785156 33.746094 155.675781 C 33.101562 159 33.132812 162.308594 33.671875 165.460938 C 34.269531 168.617188 35.179688 171.617188 36.175781 174.394531 C 37.226562 177.171875 38.253906 179.738281 38.875 182.089844 C 39.546875 184.449219 39.882812 186.597656 39.378906 188.605469 C 39.378906 188.605469 38.0625 187.015625 36.746094 185.429688 C 36.089844 184.617188 35.433594 183.800781 34.941406 183.191406 C 34.441406 182.578125 34.144531 182.160156 34.144531 182.160156 C 34.144531 182.160156 34.226562 182.5625 34.402344 183.164062 C 34.570312 183.765625 34.792969 184.566406 35.015625 185.367188 C 35.464844 186.957031 35.914062 188.542969 35.914062 188.542969 L 36.238281 186.660156 C 38.347656 187.96875 38.234375 189.972656 37.910156 192.316406 C 37.613281 194.65625 37 197.355469 37.855469 199.820312 C 37.855469 199.820312 36.507812 199.09375 35.15625 198.367188 C 33.804688 197.613281 32.457031 196.859375 32.457031 196.859375 C 32.457031 196.859375 32.492188 197.464844 32.550781 198.367188 C 32.625 199.273438 32.65625 200.484375 32.804688 201.6875 C 33.074219 204.09375 33.34375 206.503906 33.34375 206.503906 L 34.578125 205.109375 C 38.753906 220.191406 41.234375 232.972656 43.25 247.363281 C 43.25 247.363281 43.1875 246.832031 43.09375 246.03125 C 43.011719 245.226562 42.855469 244.175781 42.796875 243.09375 C 42.648438 240.957031 42.5 238.820312 42.5 238.820312 C 43.710938 239.15625 45.335938 243.292969 46.105469 247.074219 C 47.382812 245.960938 46.769531 243.175781 46.472656 240.550781 C 46.183594 238.382812 45.945312 236.414062 46.695312 235.765625 C 47.363281 239.554688 48.1875 243.320312 49.164062 247.054688 C 49.214844 247.9375 49.25 248.800781 49.265625 249.671875 C 49.308594 251.675781 49.4375 253.65625 49.675781 256.019531 C 49.804688 257.195312 49.972656 258.460938 50.226562 259.847656 C 50.519531 261.214844 50.890625 262.703125 51.371094 264.351562 C 52.265625 264.457031 52.941406 262.980469 53.769531 261.507812 C 54.707031 263.988281 55.726562 266.441406 56.808594 268.871094 C 55.988281 269.449219 54.707031 269.402344 52.480469 268.121094 C 56.226562 271.496094 56.355469 273.460938 56.597656 275.164062 C 56.84375 276.839844 57.289062 278.199219 61.527344 279.964844 C 60.800781 279.347656 60.269531 278.03125 59.75 276.71875 C 59.863281 276.34375 60.007812 276.089844 60.167969 275.898438 C 61.941406 279.359375 63.859375 282.761719 65.929688 286.09375 C 65.980469 288.933594 66.539062 291.777344 68.894531 295.476562 C 68.894531 295.476562 69.625 296.105469 70.722656 297.050781 C 71.820312 297.988281 73.363281 299.164062 74.863281 300.351562 C 76.011719 301.28125 77.179688 302.167969 78.183594 302.914062 C 78.964844 303.835938 79.757812 304.75 80.566406 305.660156 C 80.175781 305.972656 79.660156 306.0625 79.660156 306.0625 C 81.074219 307.203125 82.433594 308.40625 83.78125 309.632812 C 85.164062 310.816406 86.511719 312.039062 87.835938 313.28125 C 88.054688 313.492188 88.277344 313.6875 88.5 313.894531 C 88.816406 314.199219 89.132812 314.503906 89.453125 314.804688 C 89.550781 315.484375 89.976562 316.152344 90.949219 316.6875 C 91.34375 316.890625 91.695312 317.046875 92.011719 317.160156 C 92.050781 317.191406 92.089844 317.226562 92.125 317.257812 C 93.339844 318.355469 94.554688 319.441406 95.726562 320.527344 C 98.359375 322.804688 100.984375 324.925781 103.558594 326.742188 C 104.496094 327.355469 105.417969 327.921875 106.335938 328.457031 C 110.054688 331.023438 113.867188 333.398438 117.757812 335.570312 C 117.757812 335.601562 117.761719 335.628906 117.757812 335.660156 C 118.082031 335.816406 118.425781 335.957031 118.75 336.109375 C 120.402344 337.015625 122.066406 337.890625 123.746094 338.726562 C 122.390625 339.011719 121.257812 339.25 121.257812 339.25 C 129.476562 343.269531 137.917969 348.867188 146.972656 353.117188 C 155.964844 357.386719 165.472656 360.363281 174.117188 359.652344 L 171.871094 355.546875 C 172.847656 355.628906 173.8125 355.734375 174.769531 355.859375 C 175.730469 355.960938 176.6875 356.058594 177.636719 356.1875 C 179.53125 356.441406 181.394531 356.761719 183.222656 357.121094 C 186.890625 357.707031 190.429688 358.488281 193.78125 359.058594 C 197.136719 359.558594 200.296875 360.132812 203.15625 360.175781 C 206.011719 360.238281 208.558594 360.035156 210.664062 359.320312 C 205.101562 356.351562 207.128906 355.476562 210.78125 355.121094 C 214.453125 354.597656 219.890625 354.613281 221.421875 353.566406 C 220.023438 353.410156 218.550781 353.3125 217.035156 353.265625 C 215.519531 353.234375 213.960938 353.289062 212.394531 353.402344 C 209.269531 353.652344 206.121094 353.863281 203.292969 354.230469 C 198.398438 354.71875 194.476562 355.121094 193.597656 354.683594 L 193.9375 355.160156 C 193.9375 355.160156 192.65625 355.292969 190.730469 355.363281 C 188.804688 355.453125 186.222656 355.589844 183.621094 355.664062 C 181.019531 355.648438 178.414062 355.636719 176.460938 355.625 C 175.476562 355.621094 174.660156 355.597656 174.089844 355.558594 C 173.519531 355.527344 173.191406 355.507812 173.191406 355.507812 L 173.847656 353 C 190.75 354.601562 207.882812 353.199219 224.386719 348.800781 C 224.390625 348.816406 224.390625 348.835938 224.398438 348.851562 C 224.398438 348.835938 224.398438 348.816406 224.398438 348.796875 C 225.980469 348.375 227.558594 347.921875 229.128906 347.445312 C 229.171875 348.238281 229.183594 349.085938 229.199219 349.9375 C 229.265625 354.308594 229.421875 358.917969 235.636719 356.410156 C 231.921875 356.039062 230.914062 353.453125 231.335938 350.929688 C 231.765625 348.375 233.605469 345.996094 235.960938 345.613281 C 235.851562 345.550781 235.734375 345.4375 235.613281 345.300781 C 236.496094 344.984375 237.378906 344.667969 238.257812 344.332031 C 237.300781 346.261719 237.957031 347.441406 239.417969 347.855469 C 240.632812 348.203125 242.402344 348.03125 244.082031 347.300781 C 246.046875 347.835938 245.410156 348.382812 243.980469 348.964844 C 242.445312 349.574219 240.050781 350.230469 239.21875 351.070312 C 247.574219 352.113281 244.230469 348.902344 246.320312 346.5625 C 247.808594 346.8125 249.691406 346.699219 251.730469 346.382812 C 253.84375 346.015625 256.136719 345.507812 258.304688 345.070312 C 260.082031 344.652344 261.777344 344.332031 263.261719 344.246094 C 262.691406 344.867188 262.464844 345.988281 262.699219 347.917969 C 262.699219 347.917969 264.664062 347.378906 266.628906 346.835938 C 267.613281 346.5625 268.597656 346.289062 269.335938 346.082031 C 270.074219 345.878906 270.5625 345.726562 270.5625 345.730469 C 271.625 349.039062 272.140625 350.695312 267.101562 351.960938 C 268.730469 352.890625 272.484375 349.53125 274.628906 347.90625 L 272.726562 348.253906 C 273.414062 346.890625 275.117188 345.347656 276.488281 343.945312 C 272.988281 345.050781 269.226562 344.085938 266.519531 343.671875 C 265.921875 343.59375 265.378906 343.558594 264.894531 343.589844 C 266.308594 342.335938 266.824219 341.25 266.992188 340.242188 C 267.175781 339.039062 266.828125 337.820312 266.609375 336.101562 C 267.941406 337.074219 269.828125 337.152344 271.667969 337.097656 C 273.511719 337.046875 275.382812 336.976562 276.800781 337.875 C 278.347656 335.523438 279.957031 333.882812 281.691406 332.636719 C 283.425781 331.402344 285.296875 330.582031 287.074219 329.617188 C 288.871094 328.675781 290.695312 327.742188 292.3125 326.351562 C 292.796875 325.910156 293.257812 325.417969 293.703125 324.890625 C 293.691406 324.878906 293.714844 324.847656 293.78125 324.792969 C 294.757812 323.617188 295.640625 322.226562 296.335938 320.46875 C 297.082031 320.578125 297.507812 320.777344 297.714844 321.023438 C 298.015625 320.707031 298.214844 320.492188 298.214844 320.492188 L 297.316406 320.4375 C 297.875 318.300781 299.042969 316.261719 300.589844 314.363281 C 301.128906 313.695312 301.707031 313.035156 302.300781 312.382812 C 301.597656 312.773438 300.882812 313.136719 300.144531 313.445312 C 296.519531 314.894531 292.886719 315.730469 289.292969 316.128906 C 287.113281 316.410156 285.0625 316.628906 283.144531 316.875 C 284.847656 315.339844 286.519531 313.746094 288.164062 312.113281 C 289.152344 312.804688 290.109375 313.476562 290.109375 313.476562 C 291.660156 311.703125 292.984375 309.867188 294.175781 307.984375 C 295.320312 306.148438 296.277344 304.171875 297.246094 302.207031 C 300.40625 298.421875 303.34375 294.515625 306.050781 290.496094 L 306.679688 290.941406 C 306.613281 290.472656 307.539062 289.257812 309.039062 287.351562 C 309.796875 286.410156 310.726562 285.320312 311.789062 284.109375 C 312.8125 282.859375 313.949219 281.472656 315.183594 279.964844 C 315.21875 279.921875 315.257812 279.867188 315.296875 279.824219 C 325.855469 268.464844 334.59375 255.394531 341.03125 241.0625 C 341.074219 241.03125 341.121094 241 341.167969 240.96875 C 341.90625 240.457031 342.632812 239.910156 343.101562 240.023438 C 343.5625 240.136719 343.785156 240.921875 343.277344 243.019531 C 343.34375 244.230469 344.035156 241.125 344.109375 237.546875 C 344.179688 236.28125 344.164062 234.972656 344.058594 233.777344 C 344.476562 232.6875 344.878906 231.59375 345.273438 230.492188 C 345.980469 232 347.433594 232.84375 350.1875 232.640625 C 350.351562 228.617188 350.167969 225.304688 349.082031 224.046875 L 350.058594 224.78125 C 350.058594 224.78125 349.484375 222.871094 348.46875 220.316406 C 349.097656 218.015625 349.667969 215.691406 350.183594 213.34375 C 351.378906 215.464844 352.796875 216.742188 354.867188 215.65625 C 354.867188 215.65625 353.984375 213.792969 353.101562 211.933594 C 352.671875 211.011719 352.1875 210.101562 351.820312 209.421875 C 351.457031 208.742188 351.214844 208.292969 351.214844 208.292969 C 355.402344 210.828125 354.265625 201.148438 357.40625 202.957031 C 357.40625 202.957031 357.359375 202.640625 357.238281 202.085938 C 357.121094 201.535156 356.957031 200.746094 356.757812 199.800781 C 356.328125 197.914062 355.886719 195.394531 355.203125 192.921875 C 354.574219 190.5625 353.984375 188.230469 353.457031 186.433594 C 353.488281 185.230469 353.503906 184.027344 353.503906 182.820312 L 356.453125 182.019531 C 356.453125 182.019531 356.125 183.296875 355.796875 184.574219 C 355.628906 185.207031 355.460938 185.835938 355.335938 186.3125 C 355.199219 186.785156 355.105469 187.101562 355.105469 187.101562 C 357.582031 188.253906 358.691406 188.257812 359.027344 187.449219 C 359.382812 186.660156 358.910156 185.066406 358.207031 183.148438 Z M 67.527344 123.058594 C 67.984375 121.703125 68.4375 120.394531 68.761719 119.070312 C 68.839844 118.773438 68.902344 118.484375 68.96875 118.1875 C 70.121094 117.417969 71.179688 117.769531 72.058594 120.449219 C 72.058594 120.449219 70.378906 121.988281 68.699219 123.53125 C 67.816406 124.421875 66.945312 125.300781 66.328125 125.925781 C 66.789062 124.96875 67.199219 124.015625 67.527344 123.058594 Z M 69.851562 114.242188 C 70.070312 113.308594 70.289062 112.375 70.523438 111.484375 C 70.703125 110.789062 70.898438 110.121094 71.109375 109.464844 C 71.453125 111.695312 70.890625 113.148438 69.851562 114.242188 Z M 77.707031 116.207031 C 78.351562 116.140625 79.101562 116.257812 79.984375 116.625 C 79.164062 117.558594 78.355469 118.5 77.5625 119.449219 C 77.570312 118.867188 77.585938 118.273438 77.621094 117.679688 C 77.652344 117.1875 77.679688 116.691406 77.707031 116.207031 Z M 57.824219 148.476562 C 58.054688 146.765625 58.027344 144.847656 57.921875 142.859375 C 57.859375 140.34375 57.636719 137.710938 57.539062 135.34375 C 57.535156 135.046875 57.542969 134.769531 57.542969 134.484375 C 57.890625 133.707031 58.269531 133.03125 58.667969 132.546875 C 58.289062 132.664062 57.933594 132.832031 57.585938 133.019531 C 57.65625 131.652344 57.8125 130.449219 58.125 129.554688 C 58.382812 130.335938 59.503906 128.75 60.878906 126.996094 C 62.234375 127.476562 63.625 125.523438 65.023438 123.277344 C 65.609375 123.371094 65.921875 124.277344 65.78125 126.472656 C 65.59375 126.664062 65.480469 126.777344 65.480469 126.777344 C 65.578125 126.777344 65.667969 126.765625 65.761719 126.761719 C 65.75 126.886719 65.746094 127 65.734375 127.132812 C 65.800781 127.007812 65.851562 126.878906 65.917969 126.753906 C 68.273438 126.617188 69.789062 125.78125 70.957031 124.652344 C 72.207031 123.464844 72.984375 121.886719 73.714844 120.390625 C 74.363281 119.0625 75.015625 117.824219 75.890625 117.042969 C 75.859375 117.140625 75.828125 117.226562 75.792969 117.324219 C 75.398438 118.480469 75.050781 119.742188 74.667969 120.984375 C 74.332031 122.117188 73.996094 123.238281 73.675781 124.3125 C 73.082031 125.089844 72.492188 125.871094 71.917969 126.660156 C 71.75 126.714844 71.605469 126.75 71.488281 126.753906 C 71.480469 126.921875 71.503906 127.058594 71.539062 127.1875 C 66.484375 134.164062 62.140625 141.492188 58.507812 149.078125 C 58.257812 148.902344 58.035156 148.695312 57.824219 148.476562 Z M 350.589844 150.867188 C 352.253906 153.652344 353.222656 156.761719 351.328125 157.695312 C 350.824219 154.816406 350.226562 151.972656 349.546875 149.160156 C 349.898438 149.707031 350.25 150.277344 350.589844 150.867188 Z M 264.015625 50.125 C 263.925781 50.089844 263.832031 50.050781 263.742188 50.015625 C 263.78125 50.007812 263.820312 50.003906 263.859375 49.992188 C 263.914062 50.039062 263.960938 50.082031 264.015625 50.125 Z M 260.460938 47.179688 C 260.289062 47.046875 260.117188 46.921875 259.941406 46.789062 C 259.941406 46.789062 260.15625 46.960938 260.496094 47.230469 C 260.609375 47.394531 260.722656 47.5625 260.835938 47.738281 C 261.199219 48.300781 261.5625 48.878906 261.972656 49.320312 C 260.292969 48.671875 258.601562 48.054688 256.894531 47.46875 C 258.515625 45.132812 259.539062 45.875 260.460938 47.179688 Z M 193.214844 32.628906 C 192.78125 32.703125 192.527344 32.746094 192.527344 32.746094 C 192.339844 32.519531 192.292969 32.265625 192.304688 32.023438 C 192.625 32.234375 192.9375 32.445312 193.214844 32.628906 Z M 190.0625 30.558594 C 190.0625 30.558594 190.449219 30.8125 190.984375 31.160156 C 190.660156 31.1875 190.339844 31.21875 190.019531 31.242188 C 190.039062 31.023438 190.054688 30.800781 190.0625 30.558594 Z M 113.417969 50.054688 C 113.097656 50.316406 112.789062 50.578125 112.480469 50.839844 C 112.40625 50.765625 112.351562 50.695312 112.269531 50.617188 C 112.660156 50.390625 113.042969 50.210938 113.417969 50.054688 Z M 104.320312 57.019531 C 105.242188 56.734375 106.15625 56.488281 107.035156 56.25 C 106.21875 57.3125 105.695312 58.261719 105.640625 59.027344 L 105.46875 57.820312 C 105.46875 57.820312 104.464844 59.675781 103.335938 62.324219 C 102.191406 64.960938 101.109375 68.566406 100.625 71.808594 C 101.375 69.695312 102.886719 67.734375 104.582031 65.917969 C 106.34375 64.175781 108.285156 62.578125 109.847656 61.042969 C 112.328125 58.78125 113.945312 56.632812 112.667969 54.214844 C 113.640625 53.503906 113.882812 52.621094 113 51.4375 C 114.476562 50.980469 115.644531 50.351562 116.664062 49.488281 C 118.289062 49.625 119.605469 50.410156 120.476562 51.421875 C 119.910156 51.890625 119.304688 52.421875 118.707031 52.996094 C 116.046875 55.378906 113.558594 58.527344 114.152344 59.816406 C 115.363281 59.578125 116.488281 57.519531 117.9375 56.101562 C 119.355469 54.652344 120.945312 53.667969 122.699219 55.40625 C 126.542969 53.242188 125.042969 53.007812 123.269531 52.667969 C 123.398438 52.578125 123.515625 52.5 123.660156 52.40625 C 124.921875 51.605469 126.605469 50.53125 128.292969 49.464844 C 129.980469 48.363281 131.722656 47.375 133.042969 46.636719 C 134.359375 45.890625 135.238281 45.394531 135.238281 45.394531 C 137.542969 46.867188 135.925781 52.789062 134.140625 52.976562 C 132.691406 53.398438 131.140625 54.253906 129.515625 55.207031 C 127.894531 56.167969 126.175781 57.160156 124.460938 58.117188 C 121.03125 60.054688 117.425781 61.332031 113.671875 60.316406 C 112.109375 62.785156 113.785156 63.523438 114.652344 64.402344 C 115.546875 65.308594 115.597656 66.222656 111.234375 69.230469 C 104.949219 70.214844 99.042969 73.035156 93.664062 76.539062 C 93.859375 74.527344 95.035156 71.859375 96.046875 69.253906 C 97.589844 65.480469 98.867188 61.894531 95.609375 60.875 C 95.609375 60.875 94.917969 62.816406 94.226562 64.757812 C 94.089844 65.128906 93.964844 65.503906 93.84375 65.871094 C 92.21875 61.277344 98.445312 58.640625 104.320312 57.019531 Z M 89.144531 64.375 C 89.84375 63.683594 90.4375 63.117188 90.867188 62.746094 C 91.292969 62.363281 91.535156 62.144531 91.535156 62.144531 L 93.800781 66.007812 C 93.632812 66.527344 93.476562 67.019531 93.355469 67.4375 C 93.132812 68.171875 92.984375 68.664062 92.984375 68.664062 C 91.875 64.136719 86.347656 70.84375 85.007812 68.464844 C 86.527344 66.960938 87.996094 65.507812 89.144531 64.375 Z M 77.117188 77.050781 C 77.117188 77.050781 77.925781 76.050781 79.238281 74.640625 C 80.441406 73.324219 82.019531 71.578125 83.664062 69.824219 C 83.476562 70.113281 83.277344 70.414062 83.058594 70.75 C 82.027344 72.390625 80.554688 74.480469 79.292969 76.714844 C 78.003906 78.933594 76.699219 81.113281 75.792969 82.792969 C 74.910156 84.484375 74.320312 85.613281 74.320312 85.613281 L 71.445312 83.96875 C 71.925781 83.378906 72.394531 82.808594 72.839844 82.269531 C 72.882812 82.246094 72.925781 82.21875 72.964844 82.195312 C 73.53125 81.867188 74.097656 81.535156 74.519531 81.289062 C 74.953125 81.054688 75.242188 80.894531 75.242188 80.894531 C 75.105469 80.519531 74.972656 80.191406 74.839844 79.886719 C 76.171875 78.351562 77.175781 77.324219 77.699219 77.148438 Z M 49.46875 154.535156 C 52.054688 146.683594 51.382812 157.359375 54.425781 154.425781 C 55.144531 154.058594 55.703125 153.574219 56.152344 152.996094 C 56.191406 153.351562 56.210938 153.722656 56.207031 154.101562 C 55.125 156.605469 54.125 159.136719 53.191406 161.6875 C 52.230469 162.109375 51.382812 161.765625 50.726562 160.84375 C 50.269531 160.207031 49.90625 159.304688 49.667969 158.21875 C 49.441406 157.136719 49.394531 155.878906 49.46875 154.535156 Z M 148.382812 348.238281 C 149.046875 348.425781 149.710938 348.617188 150.378906 348.796875 C 150.378906 348.875 150.371094 348.9375 150.375 349.019531 C 149.617188 348.820312 148.957031 348.550781 148.382812 348.238281 Z M 163.433594 351.640625 C 166.546875 352.167969 169.679688 352.582031 172.816406 352.902344 C 170.628906 354.382812 167.023438 353.363281 163.433594 351.640625 Z M 243.851562 346.988281 C 243.441406 347.0625 243.039062 347.113281 242.65625 347.113281 C 241.789062 347.097656 241.019531 346.925781 240.390625 346.640625 C 239.253906 346.128906 238.597656 345.246094 238.515625 344.242188 C 240.242188 343.585938 241.957031 342.890625 243.660156 342.164062 C 243.378906 342.59375 243.199219 343.230469 243.175781 344.183594 C 243.429688 345.199219 244.09375 345.855469 245.050781 346.246094 C 244.621094 346.425781 244.21875 346.667969 243.851562 346.988281 Z M 247.328125 341.71875 C 246.671875 341.578125 246.007812 341.421875 245.40625 341.402344 C 247.050781 340.675781 248.683594 339.917969 250.304688 339.121094 C 250.882812 342.304688 249.1875 342.125 247.328125 341.71875 Z M 247.328125 341.71875 " fill-opacity="1" fill-rule="nonzero"/></g><path fill="#320047" d="M 224.398438 348.863281 C 224.398438 349.480469 224.398438 349.902344 224.398438 349.902344 C 224.523438 349.515625 224.5 349.171875 224.398438 348.863281 Z M 224.398438 348.863281 " fill-opacity="1" fill-rule="nonzero"/><g clip-path="url(#fef6f4c432)"><path fill="#db2100" d="M 234.160156 79.484375 L 290.167969 79.484375 L 245.75 154.871094 L 278.582031 154.871094 L 179.117188 298.09375 L 223.539062 187.011719 L 187.8125 188.78125 Z M 234.160156 79.484375 " fill-opacity="1" fill-rule="nonzero"/></g><g clip-path="url(#21d4fadf69)"><path fill="#d97f76" d="M 234.160156 79.484375 L 243.816406 79.484375 L 187.8125 188.78125 Z M 179.117188 298.09375 L 230.300781 187.011719 L 223.539062 187.011719 Z M 179.117188 298.09375 " fill-opacity="1" fill-rule="nonzero"/></g><g clip-path="url(#c0f3bfd124)"><g clip-path="url(#e0b090edd9)"><g clip-path="url(#3195bfaa99)"><path fill="#49aed9" d="M 149.734375 301.246094 L 93.824219 297.929688 L 142.632812 225.308594 L 109.859375 223.363281 L 217.632812 86.285156 L 166.707031 194.539062 L 202.476562 194.890625 Z M 149.734375 301.246094 " fill-opacity="1" fill-rule="nonzero"/></g></g></g><g clip-path="url(#bd0afaf55e)"><g clip-path="url(#fff9b6ff13)"><g clip-path="url(#462d984448)"><path fill="#107faa" d="M 149.734375 301.246094 L 140.09375 300.675781 L 202.476562 194.890625 Z M 217.632812 86.285156 L 159.957031 194.140625 L 166.707031 194.539062 Z M 217.632812 86.285156 " fill-opacity="1" fill-rule="nonzero"/></g></g></g></svg>