<svg xmlns="http://www.w3.org/2000/svg" xmlns:xlink="http://www.w3.org/1999/xlink" width="512" zoomAndPan="magnify" viewBox="0 0 384 383.999986" height="512" preserveAspectRatio="xMidYMid meet" version="1.0"><defs><clipPath id="3a7f175f81"><path d="M 173.472656 14.128906 L 360.285156 14.128906 L 360.285156 347.144531 L 173.472656 347.144531 Z M 173.472656 14.128906 " clip-rule="nonzero"/></clipPath><clipPath id="f40eaa8c2d"><path d="M 23.695312 36.851562 L 210.507812 36.851562 L 210.507812 369.867188 L 23.695312 369.867188 Z M 23.695312 36.851562 " clip-rule="nonzero"/></clipPath></defs><g clip-path="url(#3a7f175f81)"><path fill="#ff5757" d="M 173.671875 180.597656 C 173.671875 180.597656 235.824219 180.597656 235.824219 180.597656 C 235.824219 180.597656 173.671875 347.105469 173.671875 347.105469 C 173.671875 347.105469 360.125 118.160156 360.125 118.160156 C 360.125 118.160156 277.257812 117.882812 277.257812 117.882812 C 277.257812 117.882812 318.691406 14.09375 318.691406 14.09375 C 318.691406 14.09375 215.105469 14.09375 215.105469 14.09375 C 215.105469 14.09375 173.671875 180.597656 173.671875 180.597656 Z M 173.671875 180.597656 " fill-opacity="1" fill-rule="nonzero"/></g><g clip-path="url(#f40eaa8c2d)"><path fill="#0097b2" d="M 210.308594 203.394531 C 210.308594 203.394531 148.160156 203.394531 148.160156 203.394531 C 148.160156 203.394531 210.308594 36.890625 210.308594 36.890625 C 210.308594 36.890625 23.859375 265.835938 23.859375 265.835938 C 23.859375 265.835938 106.726562 266.109375 106.726562 266.109375 C 106.726562 266.109375 65.292969 369.902344 65.292969 369.902344 C 65.292969 369.902344 168.875 369.902344 168.875 369.902344 C 168.875 369.902344 210.308594 203.394531 210.308594 203.394531 Z M 210.308594 203.394531 " fill-opacity="1" fill-rule="nonzero"/></g></svg>